<svg xmlns="http://www.w3.org/2000/svg" viewBox="0 0 128 128" fill="none" role="img" aria-hidden="true">
  <rect width="128" height="128" rx="22" fill="url(#rv-bg)"/>
  <defs>
    <linearGradient id="rv-bg" x1="0" y1="0" x2="128" y2="128" gradientUnits="userSpaceOnUse">
      <stop stop-color="#E8F6FE"/>
      <stop offset="1" stop-color="#DCF4FD"/>
    </linearGradient>
  </defs>
  <!-- hoodie / casual shoulders -->
  <path fill="#021859" d="M16 128c6-32 20-48 48-48s42 16 48 48H16Z"/>
  <path fill="#0A2463" d="M32 128c8-20 16-26 32-26s24 6 32 26H32Z"/>
  <path fill="#07B0F2" opacity="0.2" d="M48 92h32v8H48z"/>
  <!-- neck -->
  <path fill="#C6865E" d="M57 74h14v12c0 3-3 6-7 6s-7-3-7-6V74Z"/>
  <!-- ears -->
  <ellipse cx="43" cy="54" rx="5" ry="7" fill="#B07855"/>
  <ellipse cx="85" cy="54" rx="5" ry="7" fill="#B07855"/>
  <!-- face -->
  <ellipse cx="64" cy="50" rx="21" ry="25" fill="#D4A088"/>
  <!-- freckle hints -->
  <circle cx="52" cy="56" r="0.8" fill="#B07855" opacity="0.35"/>
  <circle cx="56" cy="58" r="0.7" fill="#B07855" opacity="0.35"/>
  <circle cx="76" cy="57" r="0.8" fill="#B07855" opacity="0.35"/>
  <!-- eyes -->
  <ellipse cx="54" cy="48" rx="5" ry="4.5" fill="#fff"/>
  <ellipse cx="74" cy="48" rx="5" ry="4.5" fill="#fff"/>
  <ellipse cx="54" cy="48" rx="3.2" ry="3.4" fill="#3D2914"/>
  <ellipse cx="74" cy="48" rx="3.2" ry="3.4" fill="#3D2914"/>
  <circle cx="55.2" cy="47" r="1.1" fill="#fff"/>
  <circle cx="75.2" cy="47" r="1.1" fill="#fff"/>
  <!-- brows -->
  <path stroke="#4A3018" stroke-width="1.8" stroke-linecap="round" d="M48 42c3-1 7 0 10 2M70 42c3-2 7-2 10 0"/>
  <!-- nose -->
  <path stroke="#B07855" stroke-width="1.2" stroke-linecap="round" d="M64 52v7"/>
  <!-- warm smile -->
  <path stroke="#9A5C48" stroke-width="1.8" stroke-linecap="round" fill="none" d="M55 63c4 5 14 5 18 0"/>
  <!-- wavy hair base -->
  <path fill="#2C1810" d="M38 42c0-18 12-28 26-28s26 10 26 28c0 6-2 12-6 14 2-8-2-14-8-14s-10 6-8 14c-4-2-6-8-6-14 0-4-8-2-12 4-4-4-12-6-12-4Z"/>
  <!-- curl strands -->
  <path fill="none" stroke="#2C1810" stroke-width="3.5" stroke-linecap="round" d="M44 36c-4 8-2 18 4 22M84 36c4 8 2 18-4 22"/>
  <path fill="#2C1810" d="M46 30c6-8 14-12 18-12s12 4 18 12c-4 2-10 3-18 3s-14-1-18-3Z"/>
  <path fill="#2C1810" d="M52 26c5-4 10-6 12-6s7 2 12 6c-6 2-12 3-12 3s-6-1-12-3Z"/>
  <!-- hair volume left -->
  <ellipse cx="38" cy="44" rx="8" ry="14" fill="#2C1810" transform="rotate(-15 38 44)"/>
  <ellipse cx="90" cy="44" rx="8" ry="14" fill="#2C1810" transform="rotate(15 90 44)"/>
</svg>
